<?xml version="1.0"?><svg version="1.2" baseProfile="tiny-ps" viewBox="0 0 300 300" xmlns="http://www.w3.org/2000/svg" xmlns:xlink="http://www.w3.org/1999/xlink"><title>Debutiques</title><g><g fill="#fff" transform="matrix(.1 0 0 -.1 0 300)"><path d="M0 1500V0h3000v3000H0V1500z"/></g><g fill="#e5e5e5" transform="matrix(.1 0 0 -.1 0 300)"><path d="M0 1500V0h3000v3000H0V1500zm1440 1065 135-14 85-22c102-26 189-65 284-126l71-46 78-76 79-76 54-81c88-132 138-259 169-423l15-83v-243l-15-90c-18-114-45-198-97-302l-41-82-62-79-62-78-74-61c-177-144-325-212-539-249l-95-16-397-5-398-5v2172h675l135-15zm-393-342-7-6V768l173 4 172 5 80 22c104 29 185 67 263 125l62 46 46 62c60 80 98 162 124 262l20 79v244l-19 74c-71 274-239 438-521 508-94 23-377 41-393 24z"/></g><g fill="#a5a5a5" transform="matrix(.1 0 0 -.1 0 300)"><path d="M0 1500V0h3000v3000H0V1500zm1554 1056c172-34 272-73 394-152l83-55 74-74 74-74 57-87c100-153 154-311 174-512l11-104-11-118-11-119-20-73c-69-256-204-440-432-592l-87-58-83-35c-99-42-208-68-339-82l-97-11H620v2172l428-5 427-5 79-16zm-514-1060V770h241l72 11c103 15 201 46 282 87l70 36 76 76 76 77 42 84c22 46 48 111 57 144l16 60 5 120 5 120-21 90-22 90-42 85-41 85-81 81-80 81-75 36-75 35-85 22-85 22-167 5-168 6v-727z"/></g><g fill="#737373" transform="matrix(.1 0 0 -.1 0 300)"><path d="M0 1500V0h3000v3000H0V1500zm1475 1070c50-7 133-23 185-36l95-24 73-35c40-19 106-57 146-85l73-50 70-73c231-240 336-573 292-932-45-370-258-659-602-819-108-51-176-70-312-91l-100-15H620v2167l8 7 7 8 375-5 375-5 90-12zm-425-1077V767l148 6 147 6 71 15c39 8 102 27 139 41l67 25 69 46 69 45 45 52 46 52 45 90c24 50 52 119 61 155l18 65-1 130v130l-22 79-23 80-42 80-42 81-70 70-70 70-70 37-71 37-74 20c-97 26-220 41-342 41h-98v-727z"/></g><g fill="#3e3e3e" transform="matrix(.1 0 0 -.1 0 300)"><path d="M0 1500V0h3000v3000H0V1500zm1520 1066c191-32 303-73 435-161l82-54 72-73 73-73 54-82c67-100 117-213 152-341l26-97-1-195v-195l-26-100-26-100-55-110-55-110-61-72c-73-88-178-176-284-239-152-90-299-133-523-153l-121-11H620v2192l403-5 402-5 95-16zm-470-1069V770h73c191 1 354 30 475 86l73 33 64 51 64 51 50 74c50 76 81 145 109 250l16 60v120l-1 120-22 80c-29 102-70 188-127 264l-45 60-67 51-67 50-75 29c-41 16-109 36-150 45l-75 15-147 7-148 7v-726z"/></g><g fill="#010101" transform="matrix(.1 0 0 -.1 0 300)"><path d="M0 1500V0h3000v3000H0V1500zm1515 1071c39-6 106-20 150-32l80-20 82-39c115-54 196-111 284-199 90-91 146-171 206-297l44-93 25-98 26-98 5-148 6-148-13-92-12-92-29-87c-33-102-65-169-126-259l-44-66-77-75c-174-168-358-262-593-304l-94-17-407-4-408-5v2194l413-5 412-4 70-12zm-465-1076V779l15-5c20-8 306 14 363 27 163 39 276 101 368 202l50 54 36 69c50 96 68 154 83 264l13 95-9 85c-12 107-40 205-87 295l-36 70-76 75-75 76-60 31c-78 41-142 61-240 79l-80 14h-265v-715z"/></g></g></svg>